<svg xmlns="http://www.w3.org/2000/svg" width="256" height="256" viewBox="0 0 100 100"><rect width="100" height="100" rx="20" fill="#000000"></rect><path d="M17.64 25.68L44.20 25.68Q44.44 26.08 44.68 26.76Q44.92 27.44 44.92 28.24L44.92 28.24Q44.92 29.60 44.28 30.40Q43.64 31.20 42.44 31.20L42.44 31.20L20.68 31.20L20.68 47.84L41.40 47.84Q41.64 48.24 41.88 48.92Q42.12 49.60 42.12 50.40L42.12 50.40Q42.12 51.76 41.48 52.56Q40.84 53.36 39.64 53.36L39.64 53.36L20.68 53.36L20.68 74.24Q20.28 74.40 19.44 74.56Q18.60 74.72 17.72 74.72L17.72 74.72Q14.12 74.72 14.12 71.84L14.12 71.84L14.12 29.20Q14.12 27.60 15.08 26.64Q16.04 25.68 17.64 25.68L17.64 25.68ZM59.00 74.32L59.00 74.32Q57.48 74.32 56.48 73.36Q55.48 72.40 55.48 70.80L55.48 70.80L55.48 25.84Q55.88 25.68 56.72 25.48Q57.56 25.28 58.52 25.28L58.52 25.28Q62.04 25.28 62.04 28.24L62.04 28.24L62.04 68.72L85 68.72Q85.88 69.60 85.88 71.36L85.88 71.36Q85.88 72.72 85.16 73.52Q84.44 74.32 83.24 74.32L83.24 74.32L59.00 74.32Z" fill="#ffffff"></path></svg>