<svg xmlns="http://www.w3.org/2000/svg" width="256" height="256" viewBox="0 0 100 100"><path fill="#4361ee" d="M21.27 59.84L21.27 82.34L18.46 82.34L18.46 17.66L49.59 17.66L49.59 20.47L21.27 20.47L21.27 23.28L49.59 23.28L49.59 26.09L21.27 26.09L21.27 28.91L49.59 28.91L49.59 31.72L21.27 31.72L21.27 45.78L48.26 45.78L48.26 48.59L21.27 48.59L21.27 51.41L48.26 51.41L48.26 54.22L21.27 54.22L21.27 57.03L48.26 57.03L48.26 59.84L21.27 59.84ZM15.64 17.66L15.64 82.34L12.83 82.34L12.83 17.66L15.64 17.66ZM10.02 17.66L10.02 82.34L7.21 82.34L7.21 17.66L10.02 17.66ZM4.39 17.66L4.39 82.34L1.58 82.34L1.58 17.66L4.39 17.66ZM56.23 82.34L56.23 17.66L59.04 17.66L59.04 82.34L56.23 82.34ZM73.11 82.34L73.11 17.66L75.92 17.66L75.92 68.28L98.42 68.28L98.42 71.09L75.92 71.09L75.92 73.91L98.42 73.91L98.42 76.72L75.92 76.72L75.92 79.53L98.42 79.53L98.42 82.34L73.11 82.34ZM67.48 82.34L67.48 17.66L70.29 17.66L70.29 82.34L67.48 82.34ZM61.86 82.34L61.86 17.66L64.67 17.66L64.67 82.34L61.86 82.34Z"></path></svg>